<?xml version="1.0" encoding="UTF-8"?>
<!DOCTYPE svg PUBLIC "-//W3C//DTD SVG 1.1//EN" "http://www.w3.org/Graphics/SVG/1.1/DTD/svg11.dtd">
<!-- Creator: CorelDRAW 2018 (64 Bit) -->
<svg xmlns="http://www.w3.org/2000/svg" xml:space="preserve" width="279.4mm" height="215.9mm" version="1.1" style="shape-rendering:geometricPrecision; text-rendering:geometricPrecision; image-rendering:optimizeQuality; fill-rule:evenodd; clip-rule:evenodd"
viewBox="0 0 27940 21590"
 xmlns:xlink="http://www.w3.org/1999/xlink">
 <defs>
  <style type="text/css">
   <![CDATA[
    .fil0 {fill:#802A8D}
    .fil1 {fill:#E61B75}
   ]]>
  </style>
 </defs>
 <g id="Capa_x0020_1">
  <metadata id="CorelCorpID_0Corel-Layer"/>
  <path class="fil0" d="M7401.63 10434.46c30.33,9.88 60.67,19.75 91.01,29.63 -29.98,233.54 -47.62,469.2 -98.07,699.56 -23.99,121 -109.01,215.55 -199.32,293.51 -553.86,469.55 -1144.76,896.41 -1769.89,1265.77 -204.96,105.13 -73.73,424.74 -286.8,518.93 -206.73,106.19 -428.63,177.45 -646.65,255.06 -17.63,-125.23 -41.98,-255.06 -12.34,-380.29 10.93,-61.74 65.26,-99.84 114.3,-131.24 208.14,-126.29 444.14,-203.55 640.64,-349.6 110.07,-82.9 103.01,-236.01 145.7,-355.25 28.22,-127.35 131.58,-215.19 230.01,-291.39 461.43,-345.37 900.99,-720.02 1323.97,-1111.6 156.29,-147.11 303.39,-304.1 467.44,-443.09z"/>
  <path class="fil1" d="M8844.84 11876.97c137.58,-40.93 282.93,-29.28 424.39,-30.34 365.48,6.35 730.96,0 1096.43,-0.35 79.03,7.05 187.33,-6.35 230.01,77.96 2.83,131.59 -39.51,271.64 -128.05,370.42 -87.14,38.45 -185.56,32.45 -278.7,35.27 -353.13,-1.76 -706.26,-12.34 -1059.04,3.53 -57.85,242.36 -88.54,490.01 -106.18,738.01 317.5,21.87 636.06,9.17 953.91,6.7 83.61,2.12 170.39,-1.41 250.12,27.52 64.2,47.27 39.86,136.53 23.99,201.44 -26.81,82.19 -55.04,175.68 -129.83,227.19 -92.07,29.98 -190.85,23.28 -286.1,25.4 -293.51,-4.24 -587.02,-12 -879.83,4.94 -66.67,305.85 -92.42,618.06 -136.17,927.45 -14.82,84.31 -24.34,173.56 -69.85,248.35 -93.84,63.5 -215.19,56.1 -323.5,52.92 -60.67,-9.52 -148.87,-6.35 -171.09,-77.96 -11.64,-81.14 2.47,-162.99 12.34,-243.07 92.08,-596.9 167.22,-1196.62 254,-1794.22 28.58,-184.15 36.69,-372.19 86.79,-552.1 31.39,-115.36 121,-214.14 236.36,-249.06z"/>
  <path class="fil1" d="M13309.24 12136.61c114.65,-39.16 238.48,-57.5 359.48,-44.1 50.8,0.71 78.32,56.45 70.56,101.96 -1.41,145.34 -31.75,288.22 -52.57,431.8 234.6,22.57 470.61,16.93 705.91,27.87 13.05,138.64 -0.7,292.45 -103.72,396.52 -213.43,63.5 -442.03,17.99 -661.45,40.21 -49.04,310.8 -99.13,621.95 -130.53,935.22 1.41,88.55 -21.52,203.2 53.27,268.82 182.38,94.19 408.16,-4.59 589.14,95.6 9.17,113.95 -18.7,232.13 -82.2,327.73 -50.8,76.9 -154.87,67.73 -235.3,74.08 -200.38,0.71 -405.34,-5.64 -597.96,-65.61 -124.53,-37.75 -230.72,-137.59 -260,-266.35 -43.39,-189.09 -12.7,-384.88 11.29,-574.32 72.67,-495.66 141.46,-992.01 205.67,-1489.08 20.11,-92.43 20.46,-225.07 128.41,-260.35z"/>
  <path class="fil0" d="M6548.61 12644.96c201.08,-134.76 382.76,-302.33 608.19,-397.58 -4.94,237.78 -45.16,472.37 -86.08,705.91 -20.81,96.66 -39.51,203.91 -114.65,274.82 -82.2,76.2 -183.8,125.58 -281.17,178.85 -410.98,214.85 -827.61,427.22 -1274.23,557.75 -85.37,28.22 -175.68,50.09 -250.12,102.3 -67.38,117.12 -76.2,256.82 -108.66,386.29 -188.03,33.16 -379.23,42.34 -570.08,35.99 -3.53,-152.05 -2.12,-304.45 6.35,-456.15 154.16,-51.15 312.2,-87.84 468.13,-132.64 56.45,-20.11 120.65,-36.34 161.93,-83.26 55.38,-119.59 53.97,-259.99 123.12,-373.94 66.67,-80.43 167.92,-119.59 257.88,-167.57 371.82,-176.74 719.31,-399.7 1059.39,-630.77z"/>
  <path class="fil1" d="M10814.4 12674.95c150.28,-70.56 322.44,-28.22 477.31,4.59 -25.76,340.78 -89.26,676.98 -131.24,1016 -21.16,185.91 -76.2,373.59 -44.45,561.27 20.11,95.95 127.71,126.29 210.96,143.58 163.69,26.45 341.14,23.98 493.54,-48.33 121.71,-59.62 143.58,-207.79 165.8,-327.38 49.75,-362.31 100.9,-724.96 146.41,-1087.97 13.76,-84.67 25.4,-172.51 67.73,-248 146.4,-83.96 324.2,-37.4 483.31,-26.81 0.7,157.34 -11.29,314.68 -37.05,469.9 -50.44,319.26 -88.54,639.94 -135.82,959.55 -32.8,209.55 -101.24,434.98 -281.16,565.15 -221.9,160.52 -506.59,189.09 -772.58,191.91 -201.79,-1.41 -410.64,-6.35 -599.72,-85.02 -136.88,-56.44 -252.24,-174.62 -281.17,-322.79 -40.92,-197.55 1.06,-398.64 27.52,-595.13 50.8,-319.62 87.49,-641.71 132.29,-962.03 16.93,-70.91 18.7,-158.75 78.32,-208.49z"/>
  <path class="fil1" d="M14796.55 12671.42c151.7,-63.85 320.68,-27.51 474.14,12.35 -37.05,366.89 -94.9,730.95 -146.41,1096.08 -20.46,159.1 -60.32,321.38 -30.34,481.54 15.17,75.85 94.9,108.66 161.58,127 135.82,34.57 280.1,34.57 417.33,7.06 84.32,-18.7 176.39,-52.92 219.43,-133.71 55.39,-104.42 68.09,-224.01 86.08,-339.02 39.51,-309.73 85.72,-618.77 123.47,-929.21 16.93,-104.42 25.4,-215.9 81.84,-308.33 140.76,-77.96 312.57,-33.87 466.38,-33.16 12.34,125.94 10.93,252.94 -10.23,377.82 -55.74,340.08 -97.37,682.28 -145.35,1023.77 -28.93,196.49 -81.14,403.93 -226.83,548.56 -161.22,160.17 -394.41,213.79 -613.13,235.31 -226.49,17.28 -457.2,19.75 -679.81,-29.64 -158.75,-36.33 -320.67,-122.76 -391.93,-276.57 -78.67,-171.1 -47.63,-364.78 -23.28,-544.69 53.62,-360.19 103.01,-721.08 150.98,-1082.32 18,-79.03 19.76,-177.1 86.08,-232.84z"/>
  <path class="fil1" d="M17678.39 12662.6c254.71,-39.86 520.7,-56.09 771.18,19.05 -33.52,125.24 -44.81,269.88 -139,367.24 -193.32,57.86 -406.75,-8.11 -594.78,74.09 -119.95,60.32 -143.94,206.73 -166.87,325.61 -51.85,351.37 -94.89,704.15 -142.87,1055.87 -14.82,83.6 -26.11,172.15 -73.03,245.18 -136.17,65.61 -302.68,56.79 -444.5,14.46 -57.85,-63.85 -29.63,-156.63 -27.16,-233.19 45.16,-321.02 95.96,-641.35 134.76,-963.08 29.63,-214.49 55.03,-443.44 188.03,-622.65 115.71,-159.1 303.39,-250.47 494.24,-282.58z"/>
  <g>
   <path class="fil1" d="M18893.36 12674.95c87.84,-45.86 191.56,-36.34 287.87,-41.98 242.35,1.41 487.54,-8.82 727.42,33.51 170.4,32.11 351.02,105.84 440.98,263.18 87.13,155.57 69.49,342.19 50.44,512.23 -35.27,260 -75.84,518.93 -107.24,779.28 -22.23,141.12 -33.51,291.4 -110.07,416.28 -72.32,110.07 -213.43,135.12 -335.14,146.05 -222.25,13.76 -444.85,3.18 -667.1,5.65 -207.08,-3.88 -428.62,-5.29 -611.72,-113.95 -159.1,-95.25 -210.25,-295.98 -195.79,-469.9 17.29,-218.02 69.5,-456.85 242.01,-606.78 177.09,-147.81 416.63,-186.97 640.29,-197.2 208.49,-10.94 413.46,37.39 612.42,95.25 10.23,-104.78 46.92,-223.31 -15.87,-318.56 -61.03,-89.6 -181.33,-97.37 -279.4,-106.19 -261.76,-10.23 -523.88,9.88 -785.64,-8.11 -14.11,-135.82 -4.23,-293.16 106.54,-388.76l0 0zm303.39 1123.24c-92.78,15.17 -202.5,41.98 -247.3,134.77 -47.98,100.54 -62.79,218.36 -41.98,328.08 8.11,68.08 76.2,101.25 135.82,115.36 138.64,31.75 281.87,28.22 423.33,28.57 89.26,-3.53 183.8,-1.41 265.65,-42.68 58.56,-136.18 75.49,-291.05 55.03,-437.45 -5.65,-74.08 -85.37,-96.66 -144.64,-113.24 -146.05,-33.16 -298.1,-33.16 -445.91,-13.41z"/>
  </g>
  <path class="fil0" d="M5322.71 14563.02c146.05,-7.06 292.8,-37.4 438.85,-20.82 9.88,7.41 29.63,22.58 39.87,29.99 12.34,131.23 -11.65,262.82 -33.17,391.93 -18.34,82.2 -29.63,172.16 -83.25,240.25 -54.68,40.21 -125.24,44.45 -190.15,49.39 -183.8,6.7 -367.95,-4.24 -552.1,2.11 -26.45,123.47 -52.21,247.3 -83.6,370.07 -127.36,-24.7 -253.3,-56.1 -377.12,-94.9 -13.41,-167.57 -14.11,-336.55 -0.71,-504.12 149.23,-13.41 316.09,21.87 453.32,-42.69 44.8,-116.41 47.27,-246.59 107.6,-357.01 80.43,-57.15 186.62,-51.15 280.46,-64.2z"/>
 </g>
</svg>
